<?xml version="1.0" encoding="UTF-8"?>
<!DOCTYPE svg PUBLIC "-//W3C//DTD SVG 1.1//EN" "http://www.w3.org/Graphics/SVG/1.1/DTD/svg11.dtd">
<!-- Creator: CorelDRAW -->
<svg xmlns="http://www.w3.org/2000/svg" xml:space="preserve" width="682px" height="682px" version="1.1" style="shape-rendering:geometricPrecision; text-rendering:geometricPrecision; image-rendering:optimizeQuality; fill-rule:evenodd; clip-rule:evenodd"
viewBox="0 0 122.909 122.909"
 xmlns:xlink="http://www.w3.org/1999/xlink"
 xmlns:xodm="http://www.corel.com/coreldraw/odm/2003">
 <defs>
  <style type="text/css">
   <![CDATA[
    .str0 {stroke:white;stroke-width:0.18;stroke-miterlimit:22.9256}
    .fil0 {fill:#1B264C}
    .fil1 {fill:white}
   ]]>
  </style>
 </defs>
 <g id="Layer_x0020_1">
  <metadata id="CorelCorpID_0Corel-Layer"/>
  <path class="fil0" d="M0 48.245l0 27.568c0,38.674 8.422,47.096 47.096,47.096l28.717 0c38.674,0 47.096,-8.422 47.096,-47.096l0 -28.717c0,-38.674 -8.422,-47.096 -47.096,-47.096l-27.568 0c-40.238,0 -48.245,8.007 -48.245,48.245z"/>
  <g id="_2381658247792">
   <path class="fil1 str0" d="M93.541 61.244c0,7.381 -4.364,12.983 -10.846,15.366 -5.762,2.117 -11.998,-0.545 -14.039,1.928 -1.972,2.39 -0.21,5.453 2.59,5.453 7.693,0 12.292,0.483 18.86,-3.887 5.603,-3.727 9.909,-10.803 9.912,-17.495l0 -0.074c-0.003,-4.125 -0.329,-7.107 -2.108,-10.631 -2.592,-5.133 -5.596,-8.199 -10.746,-10.795 -5.391,-2.718 -10.228,-2.159 -16.37,-2.159 -3.674,0 -4.209,6.155 0.155,6.473 4.767,0.348 7.99,-0.541 11.898,0.906 6.082,2.253 10.694,7.916 10.694,14.915z"/>
   <path class="fil1 str0" d="M22.891 60.491c0,4.151 0.385,7.124 2.159,10.646 3.875,7.694 11.345,12.854 20.136,12.854l6.477 0c1.401,0 2.556,-0.748 3.095,-1.876 0.953,-1.999 -0.382,-4.091 -1.975,-4.517 -2.776,-0.741 -8.47,1.216 -14.78,-1.941 -8.172,-4.088 -11.313,-14.91 -6.047,-22.972 2.239,-3.426 5.763,-5.92 9.853,-6.868 1.718,-0.398 3.134,-0.39 5.184,-0.39 3.09,0 6.646,0.78 7.812,-1.98 0.545,-1.29 0.272,-2.481 -0.551,-3.473 -0.415,-0.499 -1.255,-1.024 -2.139,-1.024 -5.995,0 -11.017,-0.544 -16.27,2.108 -5.132,2.592 -8.199,5.596 -10.795,10.746 -1.062,2.106 -2.159,5.596 -2.159,8.687z"/>
   <path class="fil1 str0" d="M51.964 64.709l18.981 0c2.808,0 4.539,-3.106 2.591,-5.453 -0.415,-0.5 -1.255,-1.024 -2.139,-1.024l-19.885 0c-3.802,0 -4.171,6.477 0.452,6.477z"/>
  </g>
 </g>
</svg>
